<?xml version="1.0" standalone="no"?>
<!DOCTYPE svg PUBLIC "-//W3C//DTD SVG 20010904//EN"
 "http://www.w3.org/TR/2001/REC-SVG-20010904/DTD/svg10.dtd">
<svg version="1.0" xmlns="http://www.w3.org/2000/svg"
 width="700.000000pt" height="700.000000pt" viewBox="0 0 700.000000 700.000000"
 preserveAspectRatio="xMidYMid meet">
<metadata>
Created by potrace 1.11, written by Peter Selinger 2001-2013
</metadata>
<g transform="translate(0.000000,700.000000) scale(0.100000,-0.100000)"
fill="#000000" stroke="none">
<path d="M3490 6702 c-15 -5 -599 -262 -700 -309 -30 -14 -107 -48 -170 -75
-63 -28 -148 -65 -188 -84 -41 -19 -76 -34 -78 -34 -2 0 -32 -13 -66 -29 -107
-49 -154 -69 -387 -172 -124 -55 -239 -106 -256 -114 -16 -7 -77 -34 -135 -60
-58 -26 -130 -58 -160 -72 -30 -14 -127 -57 -215 -95 -222 -97 -249 -109 -255
-119 -8 -12 -4 -1912 4 -2009 6 -70 19 -178 41 -335 1 -11 10 -57 20 -103 9
-45 18 -93 21 -105 16 -92 132 -456 177 -558 8 -19 25 -59 37 -89 41 -100 161
-333 228 -443 37 -60 72 -116 77 -125 22 -36 51 -79 75 -112 15 -19 46 -62 70
-95 126 -172 342 -406 500 -542 24 -21 51 -45 60 -53 36 -35 201 -161 285
-217 287 -193 617 -349 917 -432 l106 -29 69 18 c948 251 1792 999 2231 1980
137 307 250 689 288 980 2 19 6 52 9 73 9 67 14 111 21 187 4 41 8 510 8 1043
l1 967 -40 19 c-22 10 -202 91 -400 179 -198 88 -385 171 -415 185 -30 13
-129 57 -220 97 -91 40 -194 86 -230 102 -36 16 -78 36 -95 43 -16 7 -52 23
-79 35 -27 12 -148 65 -270 119 -121 54 -241 107 -266 119 -25 11 -128 57
-230 102 -102 45 -203 90 -225 100 -128 57 -151 66 -165 62z m1033 -3197
l1018 0 -7 -50 c-6 -50 -10 -69 -19 -115 -2 -14 -7 -41 -10 -60 -24 -153 -123
-474 -207 -670 -51 -118 -180 -373 -202 -400 -7 -8 -16 -22 -19 -31 -8 -24
-152 -234 -215 -314 -277 -351 -613 -631 -979 -814 -97 -48 -303 -133 -356
-146 l-27 -7 0 1301 0 1301 -1020 0 c-965 0 -1020 1 -1020 18 -1 9 -1 381 -1
825 0 806 1 837 32 837 4 0 36 13 71 29 35 16 122 54 193 86 72 32 163 73 203
91 41 19 75 34 77 34 2 0 32 13 67 29 35 16 162 73 283 126 121 53 248 110
283 126 35 16 65 29 67 29 2 0 36 15 77 34 40 18 172 77 293 131 121 54 247
110 280 124 33 15 71 32 85 38 l25 10 5 -1281 5 -1281 1018 0z"/>
</g>
</svg>
